# xmcd
#
# Track frame offsets:
#	150
#	17914
#	32968
#	49561
#	67499
#	82616
#	101466
#	119919
#	134304
#	156665
#
# Disc length: 2254 seconds
#
# Revision: 1
# Processed by: cddbd v1.5.2PL0 Copyright (c) Steve Scherf et al.
# Submitted via: audiograbber 1.83.01
#
DISCID=8d08cc0a
DTITLE=Greg McCool - Walk On
DYEAR=1900
DGENRE=Christian
TTITLE0=Never Give Up on Jesus
TTITLE1=The House of Prayer
TTITLE2=Mama Don't You Cry No More
TTITLE3=Lost Sheep
TTITLE4=Louisiana Rain
TTITLE5=Walk On
TTITLE6=I Don't Wanna Lose This Holy Ghost Feeling
TTITLE7=Don't Take Your Love Away
TTITLE8=Through The Eyes of a Child
TTITLE9=A Mama's Tears
EXTD=
EXTT0=
EXTT1=
EXTT2=
EXTT3=
EXTT4=
EXTT5=
EXTT6=
EXTT7=
EXTT8=
EXTT9=
PLAYORDER=
